<svg xmlns="http://www.w3.org/2000/svg" xmlns:xlink="http://www.w3.org/1999/xlink" version="1.1" id="Layer_1" x="0px" y="0px" width="100.0px" height="100px" viewBox="0 0 288 288" enable-background="new 0 0 288 288" xml:space="preserve">
<g>
	<path d="M69.332,85.03l6.873,5.053l12.652-19.996l-5.539-4.07c-4.366-3.213-9.87-3.143-12.291,0.155l-5.203,7.073   C63.397,76.538,64.966,81.816,69.332,85.03z"/>
	<path d="M46.705,101.497l15.203,11.183l12.647-19.996l-13.87-10.201c-4.361-3.208-9.865-3.138-12.292,0.155l-5.203,7.073   C40.77,93.005,42.339,98.288,46.705,101.497z"/>
	<path d="M36.213,126.495l11.569,8.512l12.647-19.996l-10.231-7.524c-4.366-3.213-9.87-3.138-12.291,0.156l-5.203,7.073   C30.278,118.013,31.847,123.287,36.213,126.495z"/>
	<path d="M29.196,149.146l6.582,4.838l10.928-17.274l-5.424-3.99c-3.774-2.772-8.526-2.712-10.622,0.136l-4.496,6.11   C24.067,141.813,25.431,146.375,29.196,149.146z"/>
	<path d="M254.896,168.967l-6.536-3.945c-6.952-4.195-14.312-4.727-16.902-1.367c-0.747,2.145-1.89,4.16-3.449,5.91l-33.104,56.406   c-1.253,1.494-4.361,5.936-7.865,11.068l-7.89,13.064c-2.296,3.803,1.694,10.42,8.912,14.781l6.526,3.945   c7.219,4.355,14.934,4.807,17.234,1.002l51.981-86.082C266.105,179.939,262.11,173.322,254.896,168.967z"/>
	<path d="M222.089,164.637c2.035-2.166,2.973-5.104,2.562-8.061c-0.286-2.326-1.363-4.441-3.032-6.016l-18.527-17.384l-2.797-2.632   l-2.808-2.632l-5.794-5.438l-23.124-21.71c-3.689-3.469-9.859-3.419-13.474,0.055c-0.857,1.89-3.84,9.659,0.341,18.527   l12.085,18.366c3.329,5.063,5.72,8.646,7.449,11.199c3.379,5.008,4.176,6.01,4.221,6.07l0.656,0.811l1.564,1.936l-2.517,2.492   c-0.035,0.039-1.859,1.783-4.867,4.781c-3.659,3.635-9.068,9.129-15.233,15.705c-8.983,9.6-23.003,33.145-27.946,41.635   l-3.82,4.156c0,0-2.471,2.461-5.449,1.127c-2.988-1.338-2.446-1.658-4.03-2.66l-72.338-45.768   c-3.674-2.324-4.822-7.088-2.571-10.65l4.11-6.492l10.928-17.274l1.093-1.729l12.637-19.971l2.005-3.173l11.875-18.767l1.89-2.983   l12.647-20l20.753-32.793c2.25-3.559,7.048-4.566,10.722-2.241l72.338,45.766c3.67,2.326,4.822,7.093,2.567,10.652l-10.321,16.316   l5.795,5.434l26.346-41.641c1.875-2.962,1.224-6.752-1.458-8.446l-87.612-55.43c-0.842-0.531-1.825-0.812-2.842-0.812   c-2.125,0-4.201,1.193-5.414,3.113L94.952,74.573L82.305,94.569l-1.649,2.602l-12.652,19.991l-1.474,2.336l-12.652,19.996   l-1.078,1.704l-10.928,17.274L27.17,181.709c-0.932,1.475-1.273,3.184-0.958,4.818c0.296,1.543,1.153,2.832,2.411,3.629   l87.612,55.43c2.617,1.654,6.452,0.557,8.261-2.301l11.223-17.74l3.153,2.08l3.153,2.07l28.196,18.553   c4.606-6.922,15.289-22.889,18.567-26.953L222.089,164.637z M201.352,76.137l3.238-5.118c2.01-3.183,6.07-4.23,9.058-2.341   l4.812,3.048c2.987,1.89,3.784,6,1.765,9.183l-3.233,5.123c-2.016,3.183-6.07,4.226-9.058,2.336l-4.812-3.048   C200.134,83.431,199.336,79.32,201.352,76.137z"/>
</g>
</svg>