<?xml version="1.0" encoding="utf-8"?>
<!-- Generator: Adobe Illustrator 18.0.0, SVG Export Plug-In . SVG Version: 6.00 Build 0)  -->
<!DOCTYPE svg PUBLIC "-//W3C//DTD SVG 1.1//EN" "http://www.w3.org/Graphics/SVG/1.1/DTD/svg11.dtd">
<svg version="1.1" id="Layer_1" xmlns="http://www.w3.org/2000/svg" xmlns:xlink="http://www.w3.org/1999/xlink" x="0px" y="0px"
	 viewBox="0 0 385 181" enable-background="new 0 0 385 181" xml:space="preserve">
<path fill="#FFFFFF" d="M244.4,62l0.4,1.6c0.1,0.4-0.2,0.8-0.6,0.8"/>
<path fill="#FFFFFF" d="M214.8,59.3c-0.1,0.4-0.2,1-0.3,1.3l-3.3,15.2l3.4-16L214.8,59.3z"/>
<polygon fill="#FFFFFF" points="117.4,69.5 115.6,75.9 117.4,69.5 "/>
<g>
	<g>
		<path fill="#FFFFFF" d="M330.9,141.2c0.9-0.5,1.8-1,2.7-1.6c0.1,0.1,0.2,0.3,0.3,0.4c0.5,0.7,1.1,1.2,1.9,1.5
			c0.8,0.2,1.6,0.3,2.3,0c0.5-0.2,0.8-0.5,1-0.9c0.2-0.6,0-1.3-0.5-1.7c-0.4-0.3-0.9-0.5-1.4-0.8c-0.8-0.4-1.6-0.7-2.3-1.1
			c-0.8-0.4-1.5-0.9-2-1.6c-0.7-0.9-1-1.9-1-3.1c0-2.1,1.3-3.7,3.3-4.2c1.5-0.4,2.9-0.3,4.3,0.4c0.9,0.4,1.5,1.2,2,2c0,0,0,0,0,0.1
			c-0.9,0.6-1.7,1.1-2.6,1.7c-0.2-0.2-0.3-0.4-0.4-0.6c-0.6-0.7-1.3-0.9-2.2-0.8c-0.5,0.1-0.9,0.5-1.1,1c-0.1,0.6,0,1.1,0.5,1.6
			c0.4,0.3,0.9,0.5,1.3,0.7c0.9,0.4,1.8,0.8,2.6,1.2c0.7,0.4,1.4,0.9,1.9,1.5c0.5,0.7,0.8,1.4,0.9,2.2c0.1,0.8,0,1.6-0.2,2.3
			c-0.4,1.2-1.3,2-2.4,2.5c-1,0.4-2.1,0.6-3.2,0.5c-1.1,0-2.1-0.3-3-0.7c-1.1-0.6-2-1.4-2.6-2.6
			C330.9,141.3,330.9,141.3,330.9,141.2z"/>
		<path fill="#FFFFFF" d="M319.1,141.6c0.9-0.6,1.8-1.1,2.7-1.7c0.1,0.1,0.1,0.2,0.2,0.3c0.2,0.4,0.4,0.7,0.8,1
			c0.6,0.5,1.6,0.6,2.3,0.2c0.4-0.3,0.6-0.7,0.7-1.1c0-0.3,0.1-0.6,0.1-0.9c0-3.6,0-7.2,0-10.9c0-0.1,0-0.2,0-0.3c1.1,0,2.2,0,3.3,0
			c0,0,0,0.1,0,0.1c0,3.7,0,7.4,0,11.1c0,0.7-0.1,1.5-0.3,2.2c-0.5,1.4-1.4,2.3-2.8,2.7c-1.4,0.4-2.9,0.4-4.2-0.2
			C320.5,143.7,319.6,142.8,319.1,141.6z"/>
	</g>
</g>
<g>
	<g>
		<linearGradient id="SVGID_1_" gradientUnits="userSpaceOnUse" x1="316.5818" y1="149.1552" x2="85.2525" y2="113.01">
			<stop  offset="0" style="stop-color:#E7DF17"/>
			<stop  offset="1" style="stop-color:#DF7626"/>
		</linearGradient>
		<path fill="url(#SVGID_1_)" d="M105.1,121.9l5.8-23.1l12.5,0l-12.6,36.7l-11.5,0L86.7,98.7l12.6,0L105.1,121.9z"/>
	</g>
	<g>
		<linearGradient id="SVGID_2_" gradientUnits="userSpaceOnUse" x1="318.1717" y1="138.98" x2="86.8424" y2="102.8348">
			<stop  offset="0" style="stop-color:#E7DF17"/>
			<stop  offset="1" style="stop-color:#DF7626"/>
		</linearGradient>
		<path fill="url(#SVGID_2_)" d="M127.6,89.2c0-0.7,0.2-1.4,0.5-2.1c0.3-0.6,0.7-1.2,1.3-1.6c0.6-0.5,1.3-0.8,2.1-1.1
			c0.8-0.2,1.7-0.4,2.7-0.4c1,0,1.9,0.1,2.7,0.4c0.8,0.3,1.5,0.6,2.1,1.1c0.6,0.5,1,1,1.3,1.6c0.3,0.6,0.5,1.3,0.5,2.1
			c0,0.7-0.2,1.4-0.5,2.1c-0.3,0.6-0.8,1.2-1.3,1.6c-0.6,0.5-1.3,0.8-2.1,1.1c-0.8,0.2-1.7,0.4-2.7,0.4c-1,0-1.9-0.1-2.7-0.4
			c-0.8-0.2-1.5-0.6-2.1-1.1c-0.6-0.5-1-1-1.3-1.6C127.7,90.7,127.5,90,127.6,89.2z M140.1,135.5l-12.1,0l0-36.7l12.1,0L140.1,135.5
			z"/>
	</g>
	<g>
		<linearGradient id="SVGID_3_" gradientUnits="userSpaceOnUse" x1="318.766" y1="135.1764" x2="87.4367" y2="99.0312">
			<stop  offset="0" style="stop-color:#E7DF17"/>
			<stop  offset="1" style="stop-color:#DF7626"/>
		</linearGradient>
		<path fill="url(#SVGID_3_)" d="M183.7,118.3c0,6-1.2,10.4-3.6,13.4c-2.4,3-6.1,4.5-11.2,4.5c-2.1,0-4-0.4-5.5-1.1
			c-1.6-0.8-2.9-1.8-4-3.2l-0.4,3.6l-11.1,0l0-52.1l12,0l0,18.4c1.1-1.2,2.3-2.1,3.8-2.7c1.5-0.6,3.2-1,5.1-1
			c5.1,0,8.9,1.5,11.3,4.5c2.4,3,3.6,7.5,3.6,13.3L183.7,118.3z M171.7,115.9c0-1.7-0.1-3.1-0.2-4.3c-0.2-1.2-0.5-2.2-0.9-3.1
			c-0.5-0.8-1.1-1.4-1.9-1.8c-0.8-0.4-1.9-0.6-3.2-0.6c-1.4,0-2.5,0.2-3.4,0.7c-0.9,0.5-1.6,1.2-2.1,2l0,16.7
			c0.5,0.8,1.2,1.4,2.1,1.9c0.9,0.5,2.1,0.7,3.5,0.7c1.3,0,2.4-0.2,3.2-0.5c0.8-0.4,1.4-0.9,1.9-1.7c0.4-0.8,0.7-1.8,0.9-3.1
			c0.2-1.2,0.2-2.8,0.2-4.5L171.7,115.9z"/>
	</g>
	<g>
		<linearGradient id="SVGID_4_" gradientUnits="userSpaceOnUse" x1="318.7408" y1="135.3376" x2="87.4115" y2="99.1923">
			<stop  offset="0" style="stop-color:#E7DF17"/>
			<stop  offset="1" style="stop-color:#DF7626"/>
		</linearGradient>
		<path fill="url(#SVGID_4_)" d="M212.7,108.1c-0.5,0-1.2-0.1-2-0.2s-1.4-0.1-2-0.1c-1.7,0-3.1,0.3-4.2,0.9
			c-1.1,0.6-1.9,1.4-2.5,2.6l0,24.3l-12.1,0l0-36.7l11.3,0l0.3,4c0.9-1.5,2-2.6,3.3-3.4c1.3-0.8,2.8-1.2,4.5-1.2
			c0.5,0,1.1,0,1.8,0.1c0.6,0.1,1.2,0.2,1.5,0.3L212.7,108.1z"/>
	</g>
	<g>
		<linearGradient id="SVGID_5_" gradientUnits="userSpaceOnUse" x1="319.4472" y1="130.8167" x2="88.1179" y2="94.6714">
			<stop  offset="0" style="stop-color:#E7DF17"/>
			<stop  offset="1" style="stop-color:#DF7626"/>
		</linearGradient>
		<path fill="url(#SVGID_5_)" d="M239.4,135.6c-0.2-0.4-0.4-0.8-0.6-1.3c-0.2-0.5-0.3-1-0.4-1.5c-0.9,1-2.1,1.8-3.5,2.5
			c-1.4,0.7-3.2,1-5.2,1c-1.9,0-3.6-0.3-5.2-0.8s-3-1.3-4.2-2.2c-1.2-1-2.1-2.1-2.8-3.4c-0.7-1.3-1-2.9-1-4.5c0-1.9,0.4-3.5,1.1-5
			c0.8-1.5,1.9-2.8,3.4-3.8c1.5-1.1,3.4-1.9,5.7-2.4c2.3-0.6,5-0.8,8-0.8l3.3,0l0-3c0-1.7-0.4-2.8-1.1-3.5c-0.7-0.7-1.7-1-3.1-1
			c-1.6,0-2.7,0.4-3.4,1.1c-0.7,0.7-1.1,1.8-1.1,3.1l-12,0c0-1.6,0.4-3.1,1.2-4.5c0.8-1.4,1.9-2.7,3.4-3.7c1.5-1.1,3.2-1.9,5.3-2.5
			c2.1-0.6,4.4-0.9,7-0.9c2.3,0,4.4,0.2,6.3,0.7c1.9,0.5,3.6,1.2,5,2.2c1.4,1,2.5,2.2,3.3,3.8c0.8,1.5,1.2,3.4,1.2,5.5l0,16.3
			c0,1.1,0,2,0.1,2.8c0.1,0.8,0.2,1.6,0.3,2.2c0.1,0.7,0.3,1.3,0.5,1.8c0.2,0.5,0.5,1,0.7,1.5l0,0.6L239.4,135.6z M232.4,128.7
			c1.3,0,2.5-0.2,3.4-0.6c0.9-0.4,1.6-0.9,2.1-1.5l0-7.6l-2.8,0c-1.1,0-2.1,0.1-2.9,0.4c-0.8,0.3-1.5,0.7-2.1,1.2
			c-0.6,0.5-1,1.1-1.2,1.8c-0.3,0.7-0.4,1.4-0.4,2.2c0,1.3,0.3,2.3,1,3C230.1,128.4,231.1,128.7,232.4,128.7z"/>
	</g>
	<g>
		<linearGradient id="SVGID_6_" gradientUnits="userSpaceOnUse" x1="320.9847" y1="120.977" x2="89.6553" y2="84.8318">
			<stop  offset="0" style="stop-color:#E7DF17"/>
			<stop  offset="1" style="stop-color:#DF7626"/>
		</linearGradient>
		<path fill="url(#SVGID_6_)" d="M271.3,89.8l0,9l6.2,0l0,7.2l-6.2,0l0,18.2c0,0.8,0.1,1.4,0.2,1.9s0.3,0.9,0.6,1.2
			c0.3,0.3,0.7,0.5,1.1,0.6c0.5,0.1,1,0.2,1.7,0.2c0.6,0,1.1,0,1.6-0.1c0.5,0,0.9-0.1,1.2-0.2l-0.1,7.5c-0.9,0.3-1.9,0.5-2.9,0.7
			c-1,0.2-2.3,0.3-3.7,0.3c-1.8,0-3.4-0.2-4.8-0.6c-1.4-0.4-2.7-1-3.7-1.9c-1-0.9-1.8-2-2.4-3.4c-0.5-1.4-0.8-3-0.8-5l0-19.3l-5.3,0
			l0-7.2l5.3,0l0-9L271.3,89.8z"/>
	</g>
	<g>
		<linearGradient id="SVGID_7_" gradientUnits="userSpaceOnUse" x1="321.0525" y1="120.5428" x2="89.7232" y2="84.3976">
			<stop  offset="0" style="stop-color:#E7DF17"/>
			<stop  offset="1" style="stop-color:#DF7626"/>
		</linearGradient>
		<path fill="url(#SVGID_7_)" d="M300.8,136.3c-3.1,0-5.9-0.4-8.4-1.2c-2.4-0.8-4.5-1.9-6.1-3.3c-1.7-1.4-2.9-3.2-3.8-5.3
			c-0.9-2.1-1.3-4.5-1.3-7.1l0-3c0-3,0.4-5.6,1.3-7.9c0.8-2.3,2-4.1,3.6-5.7c1.6-1.5,3.5-2.7,5.8-3.4c2.3-0.8,4.9-1.1,7.7-1.1
			c5.8,0,10.2,1.5,13.1,4.5c2.9,3,4.4,7.5,4.4,13.4l0,4.4l-23.9,0c0.1,1.5,0.3,2.7,0.7,3.7c0.4,1,1,1.8,1.7,2.4
			c0.7,0.6,1.6,1.1,2.6,1.3c1,0.3,2.1,0.4,3.4,0.4c2.1,0,4-0.3,5.7-0.9c1.7-0.6,3.1-1.4,4.4-2.4l4.7,5.8c-0.6,0.7-1.4,1.3-2.3,1.9
			c-1,0.6-2.1,1.2-3.4,1.7c-1.3,0.5-2.8,0.9-4.4,1.3C304.6,136.1,302.8,136.3,300.8,136.3z M299.5,106.2c-2.1,0-3.6,0.6-4.6,1.8
			c-0.9,1.2-1.5,3.1-1.7,5.8l12,0l0-0.9c-0.1-2.2-0.5-3.9-1.4-5C303.1,106.8,301.6,106.2,299.5,106.2z"/>
	</g>
</g>
<g>
	<path fill="none" d="M122.1,85.9C122.1,85.9,122.1,86,122.1,85.9C122.1,86,122.1,85.9,122.1,85.9z"/>
	<path fill="none" d="M108.2,54.7c-7.1,0.5-10.6,5.8-12.3,14.3c-1.8,8.3,0,13.9,7.2,13.9h9.5c0.5,0,1-0.3,1.1-0.7l1.8-6.3l2-7.2
		C119.8,60.8,117.9,54,108.2,54.7z"/>
	<path fill="none" d="M159,78.4l-3.2,0l4.1,0.1C159.6,78.4,159.3,78.4,159,78.4z"/>
	<path fill="none" d="M191,64.4c-4.6,0-7.4,1.9-8.4,5.2c0,0.1-0.1,0.6-0.1,0.6c0,0.4,0.2,1,0.6,1l12.4,0.1c0,0,1.6,0.1,1.6-0.4
		l0.1-1.3C197.2,66.9,196.1,64.4,191,64.4z"/>
	<path fill="#FFFFFF" d="M244.8,63.5l-0.9-4c-0.7-2.9-2.8-4.2-7.5-4.2h-19.8c-0.5,0-0.9,0.2-1,0.7L208,91.6c-0.1,0.5-0.1,0.8-0.1,1
		c0.1,0.2,0.9,0.2,1.4,0.2h6.9c0.5,0,1.3,0,1.5-0.1c0.3-0.1,0.4-0.8,0.5-1.2l2.4-12.5l3-13.9c0.1-0.4,0.5-0.8,1-0.8l19.6,0
		C244.6,64.4,244.9,64,244.8,63.5z"/>
	<path fill="#FFFFFF" d="M275.4,49.1l-2.7,0c-0.5,0-8.7,0-8.7,0c-0.5,0-1,0.5-1.3,0.9l-15.3,22.5c-0.3,0.4-0.6,0.4-0.7-0.1l-1.1-4.9
		c-0.1-0.4-0.6-0.8-1-0.8h-9.8c-0.5,0-0.7,0.4-0.6,0.8l4.4,15.4c0.1,0.4,0.1,1.2,0,1.6l-2.1,7.8c-0.1,0.4,0.2,0.6,0.6,0.6h9.7
		c0.5,0,0.9-0.1,1-0.6l2.1-7.9c0.1-0.4,0.4-1,0.7-1.4l24.9-33C275.9,49.5,275.8,49.1,275.4,49.1z"/>
	<path fill="#FFFFFF" d="M144.1,74.1c0-0.1,3.7-18.1,3.7-18.1c0.1-0.4-0.2-0.6-0.7-0.6h-8.4c-0.5,0-0.9,0.2-1,0.6l-3.4,18.1
		c-0.2,0.9-0.3,1.8-0.4,2.6l9.4,2.4C143.3,77.8,143.7,76.1,144.1,74.1z"/>
	<path fill="#FFFFFF" d="M159.9,78.5l5.8,0.1l1-4.5l3.8-18.2c0,0,0.1-0.4,0-0.4h-8.9c-0.5,0-0.9,0.2-1,0.6l-2.9,13.7l-1.9,8.7l3.2,0
		C159.3,78.4,159.6,78.4,159.9,78.5z"/>
	<path fill="#FFFFFF" d="M82.3,55.4h-9.5c-0.5,0-0.9,0.1-1,0.6l-1.7,7.4c-0.1,0.4,0.2,0.8,0.7,0.8h9.1c0.5,0,0.9-0.4,1-0.9l1.6-7.5
		C82.5,55.8,82.6,55.4,82.3,55.4z"/>
	<path fill="#FFFFFF" d="M79.3,66.7l-9.1,0c-0.5,0-0.9,0.4-1,0.8l-1.3,5.7L65,86.1c0,0-1.5,6.9-1.7,7.4c0,0-1.3,5-4.3,4.8
		c-1.4-0.1-3-0.4-3-0.4h0c-0.9-0.3-0.9,0.6-1,1.1l-1.9,8.1c-0.1,0.4,0.2,0.8,0.6,0.9c0,0,4.1,0.6,7,0.6h0.5
		c7.1,0,10.9-4.2,13.3-15.6l2.8-13.2l2.6-12.3C80,67.1,79.7,66.7,79.3,66.7z"/>
	<path fill="#FFFFFF" d="M192.9,55.3c-16,0-19.8,9.9-21.9,19.6c-2.1,10-1.9,17.9,14.6,17.9h0.6c6.6,0,14.5,0,14.5,0
		c0.4,0,0.9-0.4,1-0.9l1.6-6.3c0.1-0.4-0.2-0.6-0.7-0.6h-14.9c-5.4,0-7.3-1.7-7.1-5.4c0-0.4,0.5-1.5,0.9-1.5h22.9c1,0,1-0.6,1-0.6
		C207.9,67.1,208,55.3,192.9,55.3z M197.1,71c0,0.5-1.6,0.4-1.6,0.4l-12.4-0.1c-0.4,0-0.6-0.6-0.6-1c0,0,0-0.5,0.1-0.6
		c1-3.3,3.8-5.2,8.4-5.2c5.1,0,6.2,2.5,6.2,5.4L197.1,71z"/>
	<path fill="#FFFFFF" d="M122.1,86C122.1,86,122.1,85.9,122.1,86c0.5-1.4,1.1-2.4,1.8-3.1c0-0.1,0-0.2,0-0.2c0-0.1,0-0.1,0-0.2
		c0,0,4.5-10.9,5.5-17.1c1.4-8.4-2.8-20.6-19.1-20.6c-16.2,0-23.2,11.6-25.8,24.3c-2.7,12.7,0.8,23.8,16.9,23.7l20.9,0
		c-0.4-1.1-0.7-2.3-0.7-3.6c0-1.1,0.2-2.1,0.5-3.1C122.1,86.1,122.1,86.1,122.1,86C122.1,86,122.1,86,122.1,86z M117.5,68.7l-2,7.2
		l-1.8,6.3c-0.1,0.4-0.6,0.7-1.1,0.7H103c-7.2,0-9-5.6-7.2-13.9c1.8-8.5,5.2-13.7,12.3-14.3C117.9,54,119.8,60.8,117.5,68.7z"/>
</g>
</svg>
